<svg height="100%" width="50%" id="svg" viewBox="0 0 1440 400" xmlns="http://www.w3.org/2000/svg" class="transition duration-300 ease-in-out delay-150"><defs><linearGradient id="gradient"><stop offset="5%" stop-color="#ec489944"></stop><stop offset="95%" stop-color="#f8717144"></stop></linearGradient></defs><path d="M 0,400 C 0,400 0,80 0,80 C 111.03349282296651,88.47846889952153 222.06698564593302,96.95693779904306 311,94 C 399.933014354067,91.04306220095694 466.76555023923447,76.65071770334929 550,72 C 633.2344497607655,67.34928229665071 732.8708133971293,72.44019138755979 835,82 C 937.1291866028707,91.55980861244021 1041.751196172249,105.5885167464115 1143,106 C 1244.248803827751,106.4114832535885 1342.1244019138755,93.20574162679425 1440,80 C 1440,80 1440,400 1440,400 Z" stroke="none" stroke-width="0" fill="url(#gradient)" class="transition-all duration-300 ease-in-out delay-150"></path><defs><linearGradient id="gradient"><stop offset="5%" stop-color="#ec489966"></stop><stop offset="95%" stop-color="#f8717166"></stop></linearGradient></defs><path d="M 0,400 C 0,400 0,160 0,160 C 113.7129186602871,169.89473684210526 227.4258373205742,179.78947368421055 328,182 C 428.5741626794258,184.21052631578945 516.0095693779904,178.73684210526315 615,169 C 713.9904306220096,159.26315789473685 824.5358851674642,145.26315789473685 903,149 C 981.4641148325358,152.73684210526315 1027.846889952153,174.21052631578948 1112,179 C 1196.153110047847,183.78947368421052 1318.0765550239234,171.89473684210526 1440,160 C 1440,160 1440,400 1440,400 Z" stroke="none" stroke-width="0" fill="url(#gradient)" class="transition-all duration-300 ease-in-out delay-150"></path><defs><linearGradient id="gradient"><stop offset="5%" stop-color="#ec489988"></stop><stop offset="95%" stop-color="#f8717188"></stop></linearGradient></defs><path d="M 0,400 C 0,400 0,240 0,240 C 74.01913875598089,235.3492822966507 148.03827751196178,230.69856459330143 244,230 C 339.9617224880382,229.30143540669857 457.86602870813385,232.555023923445 577,242 C 696.1339712918661,251.444976076555 816.4976076555024,267.08133971291863 913,260 C 1009.5023923444976,252.91866028708137 1082.1435406698565,223.11961722488041 1166,216 C 1249.8564593301435,208.88038277511959 1344.9282296650717,224.4401913875598 1440,240 C 1440,240 1440,400 1440,400 Z" stroke="none" stroke-width="0" fill="url(#gradient)" class="transition-all duration-300 ease-in-out delay-150"></path><defs><linearGradient id="gradient"><stop offset="5%" stop-color="#ec4899ff"></stop><stop offset="95%" stop-color="#f87171ff"></stop></linearGradient></defs><path d="M 0,400 C 0,400 0,320 0,320 C 71.09090909090907,304.04784688995215 142.18181818181813,288.0956937799043 248,296 C 353.81818181818187,303.9043062200957 494.3636363636364,335.6650717703349 603,337 C 711.6363636363636,338.3349282296651 788.3636363636363,309.244019138756 878,305 C 967.6363636363637,300.755980861244 1070.1818181818182,321.35885167464113 1166,328 C 1261.8181818181818,334.64114832535887 1350.909090909091,327.32057416267946 1440,320 C 1440,320 1440,400 1440,400 Z" stroke="none" stroke-width="0" fill="url(#gradient)" class="transition-all duration-300 ease-in-out delay-150"></path></svg>